<svg width="34" height="26" viewBox="0 0 34 26" fill="none" xmlns="http://www.w3.org/2000/svg">
<path d="M0.890083 18.6895C0.890083 18.6895 5.71153 32.4807 24.9139 21.027C44.4581 9.36934 27.3754 -1.08804 17.3388 0.725734C13.4711 1.4247 -4.11847 4.73076 0.890083 18.6895Z" fill="#F2AA3D"/>
<path d="M20.7292 0C24.4221 3.50668 32.0152 10.3097 28.6156 2.15247C26.221 0.902728 23.4024 0.137229 20.7292 0ZM16.3684 0.375537C15.2686 0.590513 13.7421 0.925883 12.048 1.43691C22.994 12.0381 25.2343 8.27 16.3684 0.375537ZM7.13965 3.34932C4.80962 4.51263 2.61136 6.07258 1.13214 8.1593C19.237 17.2019 14.7163 11.743 7.13965 3.34932Z" fill="#A3670C"/>
</svg>
