<svg width="139" height="47" viewBox="0 0 139 47" fill="none" xmlns="http://www.w3.org/2000/svg">
<path d="M39.648 12.1528C39.648 14.7914 38.7129 17.0729 36.8427 18.9975C34.9725 20.891 32.2452 22.2569 28.6607 23.095C30.5932 23.6227 32.0582 24.4919 33.0556 25.7025C34.053 26.8821 34.5518 28.2479 34.5518 29.8C34.5518 32.2523 33.7725 34.3786 32.214 36.1791C30.6867 37.9795 28.4425 39.3763 25.4813 40.3697C22.5202 41.332 18.9513 41.8131 14.7745 41.8131C13.216 41.8131 11.9692 41.7665 11.0341 41.6734C11.0029 42.5426 10.6289 43.1945 9.912 43.629C9.1951 44.0636 8.27559 44.2809 7.15347 44.2809C6.03136 44.2809 5.25212 44.0326 4.81574 43.5359C4.41053 43.0392 4.2391 42.3098 4.30144 41.3475C4.58197 37.0016 5.12743 32.454 5.93785 27.7047C6.74826 22.9243 7.77687 18.3146 9.02366 13.8756C9.24185 13.0996 9.67824 12.5564 10.3328 12.2459C10.9874 11.9355 11.8445 11.7803 12.9043 11.7803C14.8057 11.7803 15.7563 12.308 15.7563 13.3634C15.7563 13.798 15.6628 14.2947 15.4758 14.8534C14.6654 17.2747 13.855 20.5651 13.0446 24.7247C12.2342 28.8532 11.6575 32.7955 11.3146 36.5515C12.8108 36.6757 14.0264 36.7378 14.9615 36.7378C19.3253 36.7378 22.5202 36.117 24.5462 34.8753C26.6035 33.6026 27.6321 31.9884 27.6321 30.0328C27.6321 28.667 27.0398 27.5184 25.8554 26.5872C24.7021 25.6559 22.754 25.1437 20.011 25.0506C19.3876 25.0196 18.9513 24.8644 18.7019 24.585C18.4525 24.3056 18.3279 23.8555 18.3279 23.2347C18.3279 22.3345 18.5149 21.605 18.8889 21.0462C19.263 20.4875 19.9487 20.1926 20.9461 20.1616C23.1592 20.0995 25.1541 19.7735 26.9307 19.1838C28.7386 18.594 30.1568 17.7713 31.1854 16.7159C32.214 15.6295 32.7283 14.3723 32.7283 12.9444C32.7283 11.144 31.84 9.73157 30.0633 8.7072C28.2866 7.65178 25.5593 7.12407 21.8812 7.12407C18.546 7.12407 15.32 7.55866 12.203 8.42783C9.08601 9.26595 6.43657 10.3369 4.25468 11.6406C3.25724 12.2304 2.41566 12.5253 1.72993 12.5253C1.16887 12.5253 0.732483 12.3391 0.420785 11.9666C0.140256 11.563 0 11.0664 0 10.4766C0 9.70053 0.155845 9.03314 0.467543 8.47439C0.810412 7.91564 1.60524 7.27929 2.85203 6.56533C5.4703 5.07533 8.54052 3.91126 12.0627 3.07314C15.5849 2.23502 19.185 1.81595 22.8631 1.81595C28.5048 1.81595 32.7127 2.76273 35.4869 4.65627C38.261 6.54981 39.648 9.04866 39.648 12.1528Z" fill="#F2AA3D"/>
<path d="M57.9291 26.6337C58.6148 26.6337 59.1915 26.8821 59.659 27.3787C60.1577 27.8443 60.4071 28.4341 60.4071 29.1481C60.4071 29.5516 60.3136 29.9862 60.1266 30.4518C59.6278 31.6004 58.9265 32.5627 58.0226 33.3387C57.1187 34.1147 56.1212 34.5028 55.0303 34.5028C54.1575 34.5028 53.4095 34.1924 52.7861 33.5715C52.1938 32.9507 51.8977 32.1126 51.8977 31.0572C51.8977 30.4674 51.9289 29.831 51.9912 29.1481C52.0536 28.6514 52.0847 28.31 52.0847 28.1237C52.0847 27.8754 52.0224 27.6891 51.8977 27.565C51.8042 27.4408 51.6795 27.3787 51.5237 27.3787C51.0873 27.3787 50.4951 27.9064 49.747 28.9618C48.9989 29.9862 48.2509 31.352 47.5028 33.0593C46.7547 34.7666 46.1469 36.567 45.6793 38.4606C45.3365 39.9506 44.9468 40.9439 44.5105 41.4406C44.0741 41.9372 43.3572 42.1856 42.3598 42.1856C41.1753 42.1856 40.3337 41.5647 39.835 40.3231C39.3674 39.0814 39.1337 37.0947 39.1337 34.3631C39.1337 30.3277 39.7103 26.494 40.8636 22.8622C41.1441 21.9619 41.5961 21.3101 42.2195 20.9065C42.874 20.472 43.778 20.2547 44.9313 20.2547C45.5547 20.2547 45.991 20.3323 46.2404 20.4875C46.4898 20.6427 46.6144 20.9376 46.6144 21.3722C46.6144 21.8688 46.3807 22.9863 45.9131 24.7247C45.6014 25.9663 45.3521 27.0528 45.165 27.984C44.978 28.9153 44.8222 30.0638 44.6975 31.4296C45.7261 28.7601 46.8794 26.5872 48.1573 24.9109C49.4353 23.2347 50.6821 22.0396 51.8977 21.3256C53.1133 20.6116 54.2199 20.2547 55.2173 20.2547C56.1212 20.2547 56.807 20.5185 57.2745 21.0462C57.7732 21.5429 58.0226 22.2879 58.0226 23.2812C58.0226 23.871 57.8512 24.9885 57.5083 26.6337H57.9291Z" fill="#F2AA3D"/>
<path d="M63.7176 36.5208C63.7176 36.5208 71.0858 57.5101 100.431 40.0783C130.299 22.3362 104.193 6.42072 88.8549 9.18116C82.9441 10.2449 56.0634 15.2765 63.7176 36.5208Z" fill="#F2AA3D"/>
<path d="M94.036 8.0766C99.6796 13.4135 111.284 23.7672 106.088 11.3525C102.429 9.45049 98.1213 8.28545 94.036 8.0766ZM87.3718 8.64814C85.691 8.97532 83.3583 9.48573 80.7693 10.2635C97.4972 26.3978 100.921 20.663 87.3718 8.64814ZM73.2682 13.174C69.7075 14.9445 66.348 17.3187 64.0875 20.4945C91.7556 34.2567 84.8471 25.9486 73.2682 13.174Z" fill="#A3670C"/>
<path d="M129.789 33.3853C130.132 35.9307 130.631 38.4451 131.285 40.9284C131.41 41.3319 131.472 41.751 131.472 42.1856C131.472 43.5824 130.615 44.2809 128.901 44.2809C127.935 44.2809 127.187 44.017 126.657 43.4893C126.158 42.9616 125.69 41.9683 125.254 40.5093L125.207 40.3231C124.023 41.782 122.948 42.7598 121.981 43.2565C121.046 43.7532 119.955 44.0015 118.708 44.0015C116.807 44.0015 115.233 43.3031 113.986 41.9062C112.771 40.4783 112.163 38.6313 112.163 36.3653C112.163 33.8819 112.693 31.5849 113.752 29.474C114.812 27.3632 116.262 25.6404 118.101 24.3056C119.94 22.9398 121.997 22.1172 124.272 21.8378C124.864 15.9709 125.987 10.8646 127.639 6.51874C129.322 2.17292 131.55 0 134.325 0C135.665 0 136.771 0.605306 137.644 1.81593C138.548 3.02655 139 4.85801 139 7.3103C139 10.7249 138.158 14.7137 136.475 19.2768C134.792 23.84 132.563 28.5428 129.789 33.3853ZM133.81 4.56312C132.906 4.56312 132.049 6.8602 131.239 11.4544C130.459 16.0485 129.93 21.0462 129.649 26.4475C133.109 18.9975 134.839 12.9444 134.839 8.28811C134.839 7.10853 134.73 6.1928 134.512 5.54092C134.325 4.88905 134.091 4.56312 133.81 4.56312ZM120.345 39.2987C120.968 39.2987 121.56 39.0659 122.122 38.6003C122.714 38.1346 123.462 37.2344 124.366 35.8996C124.054 33.6336 123.898 31.29 123.898 28.8687C123.898 27.9064 123.914 27.1614 123.945 26.6337C122.231 27.1304 120.812 28.2634 119.69 30.0328C118.568 31.8021 118.007 33.7578 118.007 35.8996C118.007 38.1657 118.786 39.2987 120.345 39.2987Z" fill="#F2AA3D"/>
</svg>
